<svg xmlns="http://www.w3.org/2000/svg" width="100" height="100" viewBox="0 0 100 100"><g><g><path fill="#999" d="M59.618 59.146h2.306c.351 5.717 5.721 9.718 13.046 9.718 7.148 0 12.137-4.06 12.137-9.542 0-4.412-2.976-6.948-10.036-8.727l-4.99-1.226c-7.789-1.989-11.325-5.14-11.325-10.418 0-6.567 6.131-11.296 13.808-11.296 7.935 0 13.861 4.67 14.125 10.857h-2.306c-.322-5.048-5.252-8.727-11.878-8.727-6.337 0-11.385 3.796-11.385 9.107 0 4.207 3.093 6.626 9.861 8.317l4.7 1.197c8.141 2.013 11.79 5.14 11.79 10.74 0 6.972-5.863 11.848-14.678 11.848-8.634 0-14.824-4.875-15.175-11.848zm-36.74-9.835c0 11.944 6.419 19.534 16.398 19.534 10.008 0 16.398-7.59 16.398-19.534 0-11.94-6.39-19.497-16.398-19.497s-16.398 7.561-16.398 19.497zm-2.365-.005c0-13.247 7.3-21.655 18.768-21.655s18.763 8.409 18.763 21.655c0 13.314-7.266 21.689-18.763 21.689-11.502 0-18.768-8.375-18.768-21.689zm-7.1-19.841c0-1.021.815-1.812 1.811-1.812 1.022 0 1.834.787 1.834 1.812 0 .992-.812 1.779-1.834 1.779-.992 0-1.812-.787-1.812-1.779zm.669 40.916V38.95h2.352v31.432zM0 23.196v53.608C0 89.614 10.385 100 23.196 100h53.608C89.614 100 100 89.615 100 76.804V23.196C100 10.386 89.615 0 76.804 0H23.196C10.386 0 0 10.385 0 23.196z"/></g></g></svg>