<svg xmlns="http://www.w3.org/2000/svg" width="100" height="89" viewBox="0 0 100 89"><g><g><path fill="#999" d="M49.623 54.294c4.983 0 9.022-4.048 9.022-9.042s-4.04-9.042-9.022-9.042c-4.983 0-9.023 4.048-9.023 9.042s4.04 9.042 9.023 9.042z"/></g><g><path fill="#999" d="M4.731 44.5C4.731 36.24 24.92 28.518 50 28.518s45.268 7.722 45.268 15.98S75.079 60.48 50 60.48C24.92 60.48 4.73 52.758 4.73 44.5zm94.848 0c0-11.78-22.276-20.3-49.58-20.3C22.697 24.2.42 32.72.42 44.5.42 56.277 22.696 64.798 50 64.798c27.303 0 49.579-8.521 49.579-20.3z"/></g><g transform="rotate(60 50 44.5)"><path fill="#999" d="M4.731 44.5C4.731 36.24 24.92 28.518 50 28.518s45.268 7.722 45.268 15.98S75.079 60.48 50 60.48C24.92 60.48 4.73 52.758 4.73 44.5zm94.848 0c0-11.78-22.276-20.3-49.58-20.3C22.697 24.2.42 32.72.42 44.5.42 56.277 22.696 64.798 50 64.798c27.303 0 49.579-8.521 49.579-20.3z"/></g><g transform="rotate(120 50 44.5)"><path fill="#999" d="M4.731 44.5C4.731 36.24 24.92 28.518 50 28.518s45.268 7.722 45.268 15.98S75.079 60.48 50 60.48C24.92 60.48 4.73 52.758 4.73 44.5zm94.848 0c0-11.78-22.276-20.3-49.58-20.3C22.697 24.2.42 32.72.42 44.5.42 56.277 22.696 64.798 50 64.798c27.303 0 49.579-8.521 49.579-20.3z"/></g></g></svg>