<svg xmlns="http://www.w3.org/2000/svg" width="100" height="101" viewBox="0 0 100 101"><g><g><path fill="#999" d="M0 50.502C0 22.787 22.386.32 50 .32s50 22.467 50 50.182c0 27.715-22.386 50.182-50 50.182S0 78.217 0 50.502zM58.965 25.73c-3.65 4.256-6.077 9.304-7.827 14.457-3.129-2.574-5.543-5.907-10.563-7.36-3.88-1.118-7.955-.656-11.703 2.147-1.775 1.331-2.998 3.343-3.58 5.235-1.506 4.915 1.583 9.29 2.986 10.86l3.068 3.3c.632.647 2.156 2.335 1.41 4.755-.804 2.631-3.964 4.335-7.205 3.33-1.448-.442-3.528-1.525-3.062-3.05.193-.623.637-1.09.876-1.628.218-.463.323-.81.389-1.015.592-1.94-.217-4.466-2.288-5.107-1.932-.594-3.91-.123-4.675 2.374-.87 2.837.483 7.985 7.727 10.227 8.488 2.618 15.668-2.021 16.687-8.071.641-3.79-1.063-6.605-4.187-10.226l-2.544-2.825c-1.542-1.545-2.07-4.18-.476-6.204 1.347-1.708 3.264-2.437 6.404-1.58 4.583 1.25 6.626 4.441 10.035 7.015-1.408 4.635-2.328 9.286-3.16 13.457l-.508 3.11c-2.437 12.83-4.297 19.874-9.13 23.918-.974.695-2.367 1.736-4.465 1.809-1.1.034-1.456-.726-1.47-1.057-.027-.775.624-1.13 1.056-1.48.646-.353 1.623-.94 1.557-2.819-.07-2.22-1.903-4.146-4.552-4.058-1.985.068-5.01 1.943-4.896 5.374.119 3.544 3.41 6.2 8.371 6.032 2.652-.092 8.575-1.176 14.412-8.14 6.794-7.984 8.694-17.136 10.123-23.835l1.596-8.844c.886.107 1.834.178 2.864.203 8.462.179 12.694-4.22 12.757-7.42.042-1.937-1.266-3.842-3.097-3.8-1.31.038-2.957.913-3.352 2.733-.386 1.785 2.692 3.395.286 4.96-1.709 1.11-4.774 1.893-9.089 1.257l.785-4.354c1.601-8.255 3.577-18.41 11.07-18.657.547-.028 2.545.025 2.591 1.351.014.443-.095.556-.612 1.57-.526.791-.725 1.465-.7 2.238.072 2.108 1.67 3.493 3.978 3.41 3.093-.1 3.982-3.122 3.931-4.674-.125-3.646-3.954-5.95-9.023-5.783-5.072.177-9.5 2.983-12.795 6.865z"/></g></g></svg>